<svg width="147" height="132" viewBox="0 0 147 132" fill="none" xmlns="http://www.w3.org/2000/svg">
<g clip-path="url(#clip0_14_49)">
<path d="M23.0568 0.914799C24.7681 1.16843 44.721 20.4287 44.721 20.4287C46.8588 22.4585 48.3342 25.0806 48.9602 27.9512L49.074 28.5287L49.6913 32.0396C51.0756 32.2583 52.697 32.4849 54.4464 32.6645C59.9872 33.2332 65.7036 33.2303 69.396 32.0219L70.3407 31.7188C90.1829 25.4984 108.501 28.3099 121.714 32.5745C128.441 34.7457 133.935 37.3195 137.768 39.3639C139.687 40.3879 141.201 41.2854 142.256 41.941C142.784 42.2689 143.198 42.5374 143.492 42.7318C143.639 42.8289 143.756 42.9074 143.842 42.9661C143.885 42.9953 143.921 43.0195 143.948 43.0385L144.003 43.0766C144.003 43.0766 144.008 43.08 140.014 48.7808L144.008 43.08C147.158 45.2846 147.924 49.624 145.718 52.7725C143.512 55.9209 139.17 56.686 136.02 54.4815C136.015 54.4781 136.009 54.4736 136.001 54.4685C135.965 54.444 135.9 54.3993 135.806 54.3371C135.618 54.2125 135.315 54.0165 134.905 53.7618C134.084 53.2517 132.834 52.5104 131.209 51.6435C127.951 49.906 123.225 47.6875 117.435 45.8187C106.185 42.1878 91.2547 39.9722 75.2787 44.7635L73.7282 45.2493C69.7216 46.5604 63.296 43.888 58.545 44.6296L54.9949 49.6969C57.0999 54.4617 60.4171 57.4826 60.7403 63.0873L60.7705 63.7445C61.3391 81.1491 68.7586 94.9732 76.2543 104.598C79.9918 109.396 83.6941 113.076 86.442 115.542C87.8128 116.771 88.9373 117.692 89.6976 118.288C90.0774 118.586 90.3652 118.804 90.5467 118.938C90.6375 119.005 90.7019 119.051 90.7373 119.077L90.7682 119.098L91.044 119.302C93.9509 121.564 94.6027 125.732 92.4658 128.782C90.26 131.931 85.9182 132.696 82.768 130.491L86.7619 124.79C82.768 130.491 82.7631 130.488 82.7631 130.488L82.7086 130.45C82.6813 130.43 82.6464 130.405 82.6042 130.375C82.5197 130.314 82.4056 130.23 82.2641 130.126C81.9808 129.916 81.5868 129.619 81.0981 129.236C80.1207 128.469 78.7592 127.354 77.1398 125.902C73.9068 123.001 69.6078 118.722 65.2657 113.147C56.6018 102.023 47.5462 85.4372 46.8523 64.1999L46.8065 63.4543C46.4786 59.6483 44.6212 54.6359 42.3433 49.9399C41.5763 48.3586 40.8076 46.9142 40.1286 45.6889L36.6174 46.3088C33.5198 46.8546 30.3284 46.392 27.5128 44.9909C27.5128 44.9909 1.69223 34.106 0.86847 32.5855C0.0447076 31.065 3.91107 30.9389 3.91107 30.9389C11.6166 31.3418 35.222 32.0835 35.222 32.0835C35.222 32.0835 25.7753 11.0523 22.5493 4.3355C22.5493 4.3355 21.3455 0.661169 23.0568 0.914799Z" fill="#151515"/>
</g>
<defs>
<clipPath id="clip0_14_49">
<rect width="147" height="132" fill="white"/>
</clipPath>
</defs>
</svg>
