<svg width="100" height="133" viewBox="0 0 100 133" fill="none" xmlns="http://www.w3.org/2000/svg">
<g clip-path="url(#clip0_10_33)">
<path d="M90 13.0003C95.5229 13.0003 100 17.4774 100 23.0003V123C99.9999 128.523 95.5228 133 90 133H25C19.4772 133 15.0001 128.523 15 123V23.0003C15 17.4774 19.4772 13.0003 25 13.0003H90ZM32.5 53.0003C31.1193 53.0003 30 54.1195 30 55.5003V115.5C30.0001 116.881 31.1194 118 32.5 118H77.5C78.8806 118 79.9999 116.881 80 115.5V55.5003C80 54.1195 78.8807 53.0003 77.5 53.0003H32.5ZM38 23.0003C36.3431 23.0003 35 24.3434 35 26.0003V30.0003C35.0001 31.657 36.3432 33.0003 38 33.0003H87C88.6568 33.0003 89.9999 31.657 90 30.0003V26.0003C90 24.3434 88.6569 23.0003 87 23.0003H38Z" fill="#151515"/>
<path d="M0 26C0 24.3431 1.34315 23 3 23H15V53H3C1.34315 53 0 51.6569 0 50V26Z" fill="#151515"/>
<rect x="65" y="58" width="10" height="10" rx="2" fill="#151515"/>
<rect x="50" y="58" width="10" height="10" rx="2" fill="#151515"/>
<rect x="35" y="58" width="10" height="10" rx="2" fill="#151515"/>
<rect x="65" y="73" width="10" height="10" rx="2" fill="#151515"/>
<rect x="50" y="73" width="10" height="10" rx="2" fill="#151515"/>
<rect x="35" y="73" width="10" height="10" rx="2" fill="#151515"/>
<rect x="65" y="88" width="10" height="10" rx="2" fill="#151515"/>
<rect x="50" y="88" width="10" height="10" rx="2" fill="#151515"/>
<rect x="35" y="88" width="10" height="10" rx="2" fill="#151515"/>
<rect x="65" y="103" width="10" height="10" rx="2" fill="#151515"/>
<rect x="50" y="103" width="10" height="10" rx="2" fill="#151515"/>
<rect x="35" y="103" width="10" height="10" rx="2" fill="#151515"/>
<path d="M9 23C9 20 6 14 10 8C14 2 24 2 27 8C28.5 11 28.5 13 28.5 13" stroke="#151515" stroke-width="7"/>
</g>
<defs>
<clipPath id="clip0_10_33">
<rect width="100" height="133" fill="white"/>
</clipPath>
</defs>
</svg>
